<?xml version="1.0" standalone="no"?><!DOCTYPE svg PUBLIC "-//W3C//DTD SVG 1.1//EN" "http://www.w3.org/Graphics/SVG/1.1/DTD/svg11.dtd"><svg t="1563242125913" class="icon" viewBox="0 0 1024 1024" version="1.1" xmlns="http://www.w3.org/2000/svg" p-id="6445" xmlns:xlink="http://www.w3.org/1999/xlink" width="30" height="30"><defs><style type="text/css"></style></defs><path d="M310.30303 946.424242a186.181818 77.575758 0 1 0 372.363637 0 186.181818 77.575758 0 1 0-372.363637 0Z" fill="#D0D0D0" p-id="6446"></path><path d="M780.25697 130.327273c153.6 151.179636 153.165576 396.132848-1.427394 545.357575l-276.976485 272.601213-9.712485-9.557334-267.23297-263.012848c-152.979394-149.628121-152.855273-394.519273 0.434425-545.419637 153.289697-150.807273 401.687273-150.807273 554.914909 0z" fill="#108EE9" p-id="6447"></path><path d="M720.833939 392.719515l-220.780606-168.773818L279.272727 392.719515V323.894303L500.053333 155.151515l220.780606 168.742788v68.825212z m-55.202909-6.144v163.033212h-110.374788V440.940606h-110.405818v108.668121H334.506667v-163.033212l165.577697-122.259394 165.577697 122.259394z" fill="#FFFFFF" p-id="6448"></path></svg>
