<?xml version="1.0" standalone="no"?><!DOCTYPE svg PUBLIC "-//W3C//DTD SVG 1.1//EN" "http://www.w3.org/Graphics/SVG/1.1/DTD/svg11.dtd"><svg t="1563521778512" class="icon" viewBox="0 0 1024 1024" version="1.1" xmlns="http://www.w3.org/2000/svg" p-id="3704" xmlns:xlink="http://www.w3.org/1999/xlink" width="30" height="30"><defs><style type="text/css"></style></defs><path d="M889.73312001-34.18339555a11.91936 11.91936 0 0 0-12.26069334 0.70997333c-1.2288 0.84650667-124.57301333 84.74624-206.05610667 84.75989333-4.77866667 0-9.35253333-0.30037333-13.61237333-0.88746666-32.89088-4.57386667-58.84586666-15.78325333-86.31637334-27.67530668-39.29429333-16.98474667-79.91296-34.54293333-143.70133333-34.54293332-4.77866667 0-9.68021333 0.09557333-14.59541333 0.30037333-100.07893333 4.08234667-186.83221333 30.18752-212.3776 38.55701333l-14.25408-15.37365332a11.8784 11.8784 0 0 0-13.27103999-2.89450668l-52.42880001 21.74976a11.8784 11.8784 0 0 0-6.94954666 13.94005334l252.12245332 979.40821334a11.8784 11.8784 0 0 0 19.82464 5.51594666l60.6208-59.39199999a11.89205333 11.89205333 0 0 0 3.31776-10.96362668c-0.54613333-2.51221333-53.57568-252.25898667-56.81152-308.45610667-1.72032-29.81888 10.08981333-60.48426668 32.39936001-84.11818666 24.11178667-25.53173333 72.49919999-55.96501333 166.12010666-55.96501334 52.86570668 0 101.5808-6.88128 144.82090667-20.43904 34.85696-10.93632 66.25962667-26.20074667 93.32053333-45.39733333 46.68074668-33.09568 64.38912-66.43712 65.11274667-67.84341333a11.64629333 11.64629333 0 0 0 1.33802666-5.48864L896.09557333-23.65667556a11.93301333 11.93301333 0 0 0-6.36245332-10.52671999z" fill="#ff0c0c" p-id="3705"></path><path d="M670.144 387.7248l-39.7696 39.232-29.0432-29.1712c-70.3488 42.112-135.7312 37.0944-195.3792-3.1488l-3.8656 3.7888c0.2688 1.472 0.6272 2.8928 0.6272 4.4544 0 13.376-11.4432 24.3712-24.8192 24.3712a24.32 24.32 0 0 1-24.2688-24.256c0-13.376 10.8032-25.024 24.1664-25.024 1.3952 0 2.9568 0.512 4.2752 0.7296 0.0384-0.0512 2.2016-1.8176 2.88-2.6368-7.8336-7.936-14.144-17.3824-21.6832-27.8272l25.1264-25.0624c51.8912 53.9136 122.1888 62.6944 172.9152 34.8416l-103.6416-104.0384-29.7472 29.632-44.6336-44.48L462.08 160.256c14.6432 5.9008 36.352 3.0464 49.9968-10.3296l24.7552 24.64-39.5776 39.7312 103.68 104.2048c42.4832-79.3984-7.104-177.408-88.8448-208.064 100.8384-3.0208 212.7104 121.2288 128.8064 247.7184l29.248 29.568z" fill="#F4D925" p-id="3706"></path></svg>
