<?xml version="1.0" standalone="no"?><!DOCTYPE svg PUBLIC "-//W3C//DTD SVG 1.1//EN"
    "http://www.w3.org/Graphics/SVG/1.1/DTD/svg11.dtd">
<svg t="1563257039187" class="icon" viewBox="0 0 1152 1024" version="1.1" xmlns="http://www.w3.org/2000/svg" p-id="5913"
     xmlns:xlink="http://www.w3.org/1999/xlink" width="225" height="200">
    <defs>
        <style type="text/css"></style>
    </defs>
    <path
        d="M1094.4 838.4h-352v89.6l76.8 70.4v25.6H332.8v-19.2l76.8-70.4v-89.6H57.6c-32 0-57.6-25.6-57.6-57.6V57.6C0 25.6 25.6 0 57.6 0h1036.8c32 0 57.6 25.6 57.6 57.6v729.6c-6.4 32-32 51.2-57.6 51.2z m-19.2-761.6H76.8v620.8h998.4V76.8z"
        fill="" p-id="5914"></path>
    <path
        d="M460.8 364.8l121.6 121.6v12.8c0 44.8 38.4 83.2 76.8 83.2s76.8-38.4 76.8-83.2c0-6.4 0-19.2-6.4-25.6l134.4-128c25.6 6.4 51.2 6.4 76.8-12.8s32-38.4 32-64c0-38.4-25.6-64-57.6-76.8-32-12.8-70.4 0-96 25.6-19.2 25.6-25.6 64 0 96l-121.6 121.6c-25.6-19.2-64-12.8-89.6 6.4L505.6 339.2c12.8-12.8 19.2-32 19.2-51.2 0-44.8-38.4-83.2-76.8-83.2-44.8 0-76.8 38.4-76.8 83.2 0 12.8 0 32 12.8 44.8L262.4 454.4c-32-12.8-64 0-76.8 32-19.2 19.2-12.8 57.6 6.4 76.8 25.6 19.2 57.6 25.6 83.2 6.4 25.6-19.2 38.4-51.2 25.6-76.8l128-121.6c6.4-6.4 19.2 0 32-6.4z"
        fill="" p-id="5915"></path>
</svg>
