<?xml version="1.0" standalone="no"?><!DOCTYPE svg PUBLIC "-//W3C//DTD SVG 1.1//EN" "http://www.w3.org/Graphics/SVG/1.1/DTD/svg11.dtd"><svg t="1560768192886" class="icon" style="" viewBox="0 0 1024 1024" version="1.1" xmlns="http://www.w3.org/2000/svg" p-id="2610" xmlns:xlink="http://www.w3.org/1999/xlink" width="128" height="128"><defs><style type="text/css"></style></defs><path d="M512 1024C229.248 1024 0 794.752 0 512S229.248 0 512 0s512 229.248 512 512-229.248 512-512 512zM299.178667 514.133333v260.949334c0 19.754667 16.298667 35.584 36.650666 35.584h187.264c20.352 0 36.608-15.786667 36.608-35.584a35.968 35.968 0 0 0-36.608-35.584H376.533333V284.885333h150.613334c20.352 0 36.650667-15.829333 36.650666-35.584a35.968 35.968 0 0 0-36.650666-35.584H335.829333a35.968 35.968 0 0 0-36.693333 35.584v264.874667z m541.44-23.68L726.613333 383.701333c-8.106667-3.968-16.256-7.893333-24.405333-7.893333a35.968 35.968 0 0 0-36.650667 35.584c0 7.893333 4.053333 15.786667 12.202667 23.722667l48.853333 43.477333h-215.765333a35.968 35.968 0 0 0-36.608 35.584c0 19.754667 16.256 35.584 32.554667 31.573333h215.765333l-48.853333 43.52c-8.106667 3.968-12.202667 11.861333-12.202667 23.722667 0 19.754667 16.256 35.584 36.608 35.584 8.149333 0 16.298667-3.968 24.448-7.893333l118.058667-102.826667c8.106667-3.925333 12.202667-11.818667 12.202666-23.68 0-7.936-4.053333-15.829333-12.202666-23.722667z" p-id="2611" fill="#ffffff"></path></svg>