<?xml version="1.0" standalone="no"?><!DOCTYPE svg PUBLIC "-//W3C//DTD SVG 1.1//EN" "http://www.w3.org/Graphics/SVG/1.1/DTD/svg11.dtd"><svg t="1564565823539" class="icon" viewBox="0 0 1024 1024" version="1.1" xmlns="http://www.w3.org/2000/svg" p-id="4520" xmlns:xlink="http://www.w3.org/1999/xlink" width="200" height="200"><defs><style type="text/css"></style></defs><path d="M759.893333 571.306667A381.013333 381.013333 0 0 0 896 325.12a42.666667 42.666667 0 1 0-85.333333-10.24 301.653333 301.653333 0 0 1-597.333334 0 42.666667 42.666667 0 1 0-85.333333 10.24 381.013333 381.013333 0 0 0 135.68 246.186667l-98.133333 98.986666a42.666667 42.666667 0 0 0 60.16 60.16l111.36-110.933333a386.56 386.56 0 0 0 132.266666 39.253333V810.666667a42.666667 42.666667 0 0 0 85.333334 0v-151.893334a386.56 386.56 0 0 0 132.266666-39.253333l111.36 110.933333a42.666667 42.666667 0 0 0 60.16-60.16z" fill="#6282b7" p-id="4521"></path></svg>
