<?xml version="1.0" standalone="no"?><!DOCTYPE svg PUBLIC "-//W3C//DTD SVG 1.1//EN"
    "http://www.w3.org/Graphics/SVG/1.1/DTD/svg11.dtd">
<svg t="1561446866546" class="icon" viewBox="0 0 1024 1024" version="1.1" xmlns="http://www.w3.org/2000/svg" p-id="2042"
     xmlns:xlink="http://www.w3.org/1999/xlink" width="200" height="200">
    <defs>
        <style type="text/css"></style>
    </defs>
    <path
        d="M512 317.866667m-232.533333 0a232.533333 232.533333 0 1 0 465.066666 0 232.533333 232.533333 0 1 0-465.066666 0Z"
        fill="#ffffff" p-id="2043"></path>
    <path
        d="M512 565.333333c-136.533333 0-247.466667-110.933333-247.466667-247.466666S375.466667 70.4 512 70.4s249.6 110.933333 249.6 247.466667S648.533333 565.333333 512 565.333333z m0-462.933333c-119.466667 0-215.466667 98.133333-215.466667 215.466667S392.533333 533.333333 512 533.333333s217.6-98.133333 217.6-215.466666S631.466667 102.4 512 102.4z"
        fill="#ffffff" p-id="2044"></path>
    <path d="M663.466667 582.4c142.933333 59.733333 238.933333 202.666667 238.933333 356.266667h-187.733333"
          fill="#ffffff" p-id="2045"></path>
    <path
        d="M902.4 955.733333h-187.733333c-8.533333 0-17.066667-6.4-17.066667-17.066666s6.4-17.066667 17.066667-17.066667h170.666666C878.933333 780.8 789.333333 652.8 657.066667 597.333333c-8.533333-4.266667-12.8-12.8-8.533334-21.333333 4.266667-8.533333 12.8-12.8 21.333334-8.533333C819.2 629.333333 917.333333 778.666667 917.333333 938.666667c0 8.533333-6.4 17.066667-14.933333 17.066666z"
        fill="#ffffff" p-id="2046"></path>
    <path d="M354.133333 582.4c-138.666667 61.866667-234.666667 200.533333-234.666666 356.266667H298.666667"
          fill="#ffffff" p-id="2047"></path>
    <path
        d="M298.666667 955.733333H119.466667c-8.533333 0-17.066667-6.4-17.066667-17.066666 0-160 96-305.066667 243.2-371.2 8.533333-4.266667 17.066667 0 21.333333 8.533333 4.266667 8.533333 0 17.066667-8.533333 21.333333-132.266667 59.733333-219.733333 185.6-224 326.4H298.666667c8.533333 0 17.066667 6.4 17.066666 17.066667s-8.533333 14.933333-17.066666 14.933333z"
        fill="#ffffff" p-id="2048"></path>
    <path d="M512 640l-74.666667 202.666667 83.2 74.666666 66.133334-74.666666z" fill="#ffffff" p-id="2049"></path>
    <path
        d="M520.533333 934.4c-4.266667 0-8.533333-2.133333-10.666666-4.266667L426.666667 855.466667c-4.266667-4.266667-6.4-10.666667-4.266667-17.066667l74.666667-202.666667c2.133333-6.4 8.533333-10.666667 14.933333-10.666666s12.8 4.266667 14.933333 10.666666l74.666667 202.666667c2.133333 6.4 0 12.8-2.133333 17.066667L533.333333 928l-12.8 6.4z m-64-96l64 57.6 49.066667-55.466667-57.6-153.6-55.466667 151.466667z"
        fill="#ffffff" p-id="2050"></path>
</svg>
