<?xml version="1.0" encoding="utf-8"?>
<!-- Svg Vector Icons : http://www.sfont.cn -->
<!DOCTYPE svg PUBLIC "-//W3C//DTD SVG 1.1//EN" "http://www.w3.org/Graphics/SVG/1.1/DTD/svg11.dtd">
<svg version="1.1" xmlns="http://www.w3.org/2000/svg" xmlns:xlink="http://www.w3.org/1999/xlink" x="0px" y="0px" viewBox="0 0 1000 1000" enable-background="new 0 0 1000 1000" xml:space="preserve">
<path d="M500,10C229.4,10,10,229.4,10,500c0,270.6,219.4,490,490,490c270.6,0,490-219.4,490-490C990,229.4,770.6,10,500,10z M784,174.7c-12.5-10.7-26.2-21.3-40.1-31.1C757.8,153.2,771.2,163.6,784,174.7z M552.7,928.6c11.8-1.6,45.6-8.5,70.4-20.3c26.5-12.6,20.8-10.8,35.6-29.6c14.8-18.8,6-20.2,31.6-66.5c25.5-46.4,52.4-12.8,86.7-47c34.3-34.3,11.4-18.1,47.7-52.4c36.3-34.3,5.4-37.6,0-57.8c-5.4-20.2-16.8-9.4-41-9.4c-24.2,0-32.9-33.6-57.1-67.2c-24.2-33.6-29.2-6-86.3-11.7c0,0-13.9-15.4-42-12.5c-28.1,2.9-23.5,61.8-54.4,73.2c-30.9,11.4-14.8,12.1-24.9,38.3c-10.1,26.2-3.4,29.6,21.5,39.6c24.9,10.1,11.4,13.4,10.1,43.7c-1.3,30.2,14.8,17.5,36.6,16.1c21.8-1.3,10.4,6.7,20.5,49c10.1,42.3-19.5,42.3-53.1,81.3c-27.9,32.3-18.6,34.6-9.4,33.9c-14.9,1.5-29.9,2.4-45.2,2.4C261.5,931.8,68.2,738.5,68.2,500c0-94,30.1-181,81.1-251.9c13.7,10.8,54.2,4.1,54.2,24c0,26.9-19.7,28.7,0,53.7c19.7,25.1,73.4,60.9,78.8,84.2c5.4,23.3,34.1,71.7,59.1,80.6c25.1,9,60.9,23.3,86,41.2c25.1,17.9,122.3,19.4,105.7,10.9c-53.8-27.6-53.8-44.9-68.1-44c-14.3,0.9-15.4-20.4-16.1-22.4c-8.8-25.1-49.3-15.3-59.1-16.1c-5.6-0.5-35.8-43-19.7-57.3c16.1-14.3,7.2-17.8,41.2-19.6c34.1-1.8,53.7-32.2,74.4,0c20.6,32.2,6.3,51.9,31.3,44.7c25.1-7.2,23.3-21.4,7.2-44.7c-16.1-23.3-1.8-57.4,37.6-71.7c39.4-14.3,43,0,53.7-30.5c10.8-30.5,21.5-53.7,50.1-30.5c28.7,23.3,75.2,17.9,30.5-17.9c-44.8-35.8-41.2-46.6-68.1-43c-26.9,3.6-43-34-23.3-34c19.7,0,14.3-19.7,5.4-30.5c-9-10.7-26.9-16.1-48.4-12.5c-21.5,3.6-28.7,9-32.2,26.9c-3.6,17.9-16.1,71.7-43.9,66.3c-27.8-5.4-17.8,0-45.2-7.2c-27.4-7.2-47.8-64.5,0-64.5c47.9,0,42.5-25.1,74.7-30.5c32.2-5.4,20.6-33.8,20.6-33.8s-99.2,5.1-178.2,38.7c-32.2,13.7-66.4,22.1-98.3,33C328.1,95.2,410.9,68.2,500,68.2c46,0,90.3,7.2,131.9,20.5c-8.4,6.6,15.7,32.8,50.2,33.8c45.3,1.3,42,120,81.4,118.2c39.4-1.8,100.5,27.7,57.7-27.9c-3.8-4.9-8.1-9.9-12.8-14.9c76.3,77.9,123.4,184.5,123.4,302.1C931.8,720.6,766.3,902.6,552.7,928.6z"/><path d="M907.4,429.9c-24.9-26.2-12.1,11.4-12.1,11.4c5.4,42.3,5.5,24.6-1.9,56.1c-7.4,31.5,14.7,21.2-2.1,47.4c-16.8,26.2-6.5,61.8,8.8,27.5c15.3-34.3,16.7-24.9,18-58.5C919.5,480.3,932.2,456.1,907.4,429.9z"/><path d="M620.7,468.3c-19-8.4-21.6-10.4-45.1-14.3c-23.5-3.9-25.7,2.5-27.1,6.7c0,0,35,28.3,57.1,19.6C627.7,471.7,639.8,476.7,620.7,468.3z"/>
</svg>
