<?xml version="1.0" standalone="no"?><!DOCTYPE svg PUBLIC "-//W3C//DTD SVG 1.1//EN" "http://www.w3.org/Graphics/SVG/1.1/DTD/svg11.dtd"><svg t="1559716022694" class="icon" style="" viewBox="0 0 1024 1024" version="1.1" xmlns="http://www.w3.org/2000/svg" p-id="5675" xmlns:xlink="http://www.w3.org/1999/xlink" width="48" height="48"><defs><style type="text/css"></style></defs><path d="M614.23143 1023.974381h-204.953716v-358.669002h204.953716v358.669002z m394.894571-548.609858l-461.14586-461.145859a51.238429 51.238429 0 0 0-72.451138 0l-461.14586 461.145859a51.238429 51.238429 0 0 0 72.451139 72.451139l15.012859-15.01286v439.93315a51.238429 51.238429 0 0 0 51.238429 51.238429h153.715287v-102.476858h-102.476858V430.325944l307.430573-307.430572 307.430573 307.430572v491.171579h-102.476858v102.476858h153.715287a51.238429 51.238429 0 0 0 51.238429-51.238429V532.802802l15.012859 15.01286a51.238429 51.238429 0 0 0 72.451139-72.451139z" fill="#2c2c2c" p-id="5676"></path></svg>