<?xml version="1.0" standalone="no"?><!DOCTYPE svg PUBLIC "-//W3C//DTD SVG 1.1//EN" "http://www.w3.org/Graphics/SVG/1.1/DTD/svg11.dtd"><svg t="1548125716398" class="icon" style="" viewBox="0 0 1024 1024" version="1.1" xmlns="http://www.w3.org/2000/svg" p-id="4447" xmlns:xlink="http://www.w3.org/1999/xlink" width="64" height="64"><defs><style type="text/css"></style></defs><path d="M918.016 687.04h-236.032V595.072l-120.32 214.4L681.984 1024v-91.52h120.32c29.184 0 57.344-15.168 72.704-42.496L1024 625.024c-22.016 38.4-62.464 62.528-105.984 62.08z m-168.96-369.024l120.832-214.4-77.312 46.208s-30.208-54.144-42.496-75.712c-16.896-29.952-48.64-49.408-82.432-48.896-33.792 0-65.536 18.944-82.432 49.408 0 0-27.648 48.896-55.296 98.816l56.32 99.904-77.824 45.184 240.64-0.512zM284.16 562.56l-118.272 209.728a127.744 127.744 0 0 0-0.512 125.632L16.384 632.896a87.68 87.68 0 0 1 0.512-86.208l60.416-106.688L0 394.24h241.152l120.32 214.464L284.16 562.56z m525.824 98.816l-120.32-214.464 206.848-122.496c47.104 84.608 107.008 190.784 107.008 190.784 17.408 29.952 17.408 67.328 0.512 97.792a95.36 95.36 0 0 1-82.944 48.384h-111.104zM186.368 788.48s27.648-48.896 55.808-99.328h241.152v245.504H268.8a93.056 93.056 0 0 1-82.944-48.384 99.328 99.328 0 0 1 0.512-97.792zM564.224 62.08c-28.16 49.92-184.32 327.424-183.808 327.424L172.544 266.496s99.328-179.2 125.44-222.848C312.832 17.856 338.944 0 370.176 0h297.984c-43.52 0-81.92 23.104-103.936 62.08z" p-id="4448" fill="#ffffff"></path></svg>