<?xml version="1.0" standalone="no"?><!DOCTYPE svg PUBLIC "-//W3C//DTD SVG 1.1//EN" "http://www.w3.org/Graphics/SVG/1.1/DTD/svg11.dtd"><svg t="1561530659320" class="icon" viewBox="0 0 1024 1024" version="1.1" xmlns="http://www.w3.org/2000/svg" p-id="2928" xmlns:xlink="http://www.w3.org/1999/xlink" width="200" height="200"><defs><style type="text/css"></style></defs><path d="M332.8 281.6c0 121.6 102.4 224 224 224s224-102.4 224-224S678.4 57.6 556.8 57.6c-128 0-224 96-224 224m-281.6 512c0 96 83.2 179.2 179.2 179.2 96 0 179.2-83.2 179.2-179.2S332.8 614.4 230.4 614.4C134.4 614.4 51.2 691.2 51.2 793.6m665.6-32c0 70.4 57.6 128 128 128s128-57.6 128-128-57.6-128-128-128-128 57.6-128 128m121.6-160c89.6 0 160 70.4 160 160s-70.4 160-160 160-160-70.4-160-160c0-64 38.4-121.6 108.8-153.6l-70.4-134.4c-44.8 38.4-115.2 64-166.4 64-38.4 0-96-6.4-128-38.4l-70.4 128c57.6 32 89.6 102.4 89.6 166.4 0 115.2-96 211.2-211.2 211.2-115.2 0-211.2-96-211.2-211.2 0-115.2 96-211.2 211.2-211.2 25.6 0 51.2 6.4 76.8 12.8l76.8-128c-57.6-44.8-89.6-115.2-89.6-192 0-140.8 115.2-256 256-256s256 115.2 256 256c0 64-19.2 121.6-57.6 166.4L832 601.6h6.4m0 0z" fill="#5A5A68" p-id="2929"></path></svg>
