<?xml version="1.0" standalone="no"?><!DOCTYPE svg PUBLIC "-//W3C//DTD SVG 1.1//EN" "http://www.w3.org/Graphics/SVG/1.1/DTD/svg11.dtd"><svg t="1561530688419" class="icon" viewBox="0 0 1024 1024" version="1.1" xmlns="http://www.w3.org/2000/svg" p-id="3762" xmlns:xlink="http://www.w3.org/1999/xlink" width="200" height="200"><defs><style type="text/css"></style></defs><path d="M982.5 314.7C956.8 254 920 199.5 873.2 152.6 826.4 105.8 771.9 69 711.1 43.3c-62.8-26.5-129.6-40-198.4-40-68.8 0-135.6 13.5-198.5 40.1-60.7 25.7-115.2 62.4-162.1 109.2C105.3 199.5 68.5 254 42.9 314.7 16.3 377.6 2.8 444.4 2.8 513.2c0 68.8 13.5 135.6 40.1 198.5 25.7 60.7 62.4 115.2 109.3 162.1 46.8 46.7 101.3 83.5 162 109.2 62.9 26.6 129.7 40.1 198.5 40.1 68.8 0 135.6-13.5 198.5-40.1 60.7-25.7 115.2-62.4 162.1-109.3 46.8-46.8 83.6-101.3 109.3-162.1 26.6-62.9 40.1-129.7 40.1-198.5-0.1-68.7-13.6-135.5-40.2-198.4zM512.7 983.1c-259.1 0-469.9-210.8-469.9-469.9 0-259.1 210.8-469.9 469.9-469.9 259.1 0 469.9 210.8 469.9 469.9 0 259.1-210.8 469.9-469.9 469.9z" fill="#727171" p-id="3763"></path><path d="M690 586.3H490.6V305.8c0-19.9-18.1-38-38-38-16.6 0-30.4 11.9-37 31.7l-1 3.1v309.8c0 2 0.2 4 0.6 6-0.4 2-0.6 4-0.6 6 0 19.9 18.1 38 38 38H690c19.9 0 38-18.1 38-38 0-21.7-16.3-38.1-38-38.1z" fill="#727171" p-id="3764"></path></svg>