<?xml version="1.0" standalone="no"?><!DOCTYPE svg PUBLIC "-//W3C//DTD SVG 1.1//EN" "http://www.w3.org/Graphics/SVG/1.1/DTD/svg11.dtd"><svg t="1561531321886" class="icon" viewBox="0 0 1024 1024" version="1.1" xmlns="http://www.w3.org/2000/svg" p-id="6938" xmlns:xlink="http://www.w3.org/1999/xlink" width="200" height="200"><defs><style type="text/css"></style></defs><path d="M409.6 526.336c-79.872-40.96-135.168-122.88-135.168-219.136 0-135.168 110.592-245.76 245.76-245.76s245.76 110.592 245.76 245.76c0 96.256-55.296 178.176-135.168 219.136 184.32 49.152 319.488 217.088 319.488 415.744 0 12.288-8.192 20.48-20.48 20.48s-20.48-8.192-20.48-20.48c0-215.04-174.08-389.12-389.12-389.12s-389.12 174.08-389.12 389.12c0 12.288-8.192 20.48-20.48 20.48s-20.48-8.192-20.48-20.48c0-198.656 135.168-366.592 319.488-415.744z m110.592-14.336c112.64 0 204.8-92.16 204.8-204.8s-92.16-204.8-204.8-204.8-204.8 92.16-204.8 204.8 92.16 204.8 204.8 204.8z" fill="#5A5A68" p-id="6939"></path></svg>
