<?xml version="1.0" encoding="utf-8"?>
<!-- Svg Vector Icons : http://www.sfont.cn -->
<!DOCTYPE svg PUBLIC "-//W3C//DTD SVG 1.1//EN" "http://www.w3.org/Graphics/SVG/1.1/DTD/svg11.dtd">
<svg version="1.1" xmlns="http://www.w3.org/2000/svg" xmlns:xlink="http://www.w3.org/1999/xlink" x="0px" y="0px" viewBox="0 0 1000 1000" enable-background="new 0 0 1000 1000" xml:space="preserve">
<path d="M394.2,302.9c0-14.9,3-29.7,8.6-43.4c5.7-13.7,14.1-26.3,24.6-36.8c10.5-10.5,23.1-18.9,36.8-24.6c13.7-5.7,28.6-8.6,43.4-8.6c14.9,0,29.7,2.9,43.4,8.6c13.7,5.7,26.3,14.1,36.8,24.6c10.5,10.5,18.9,23.1,24.6,36.8c5.7,13.7,8.6,28.6,8.6,43.4c0,14.9-3,29.7-8.6,43.4c-5.7,13.7-14.1,26.3-24.6,36.8c-10.5,10.5-23.1,18.9-36.8,24.6c-13.7,5.7-28.6,8.6-43.4,8.6c-14.9,0-29.7-3-43.4-8.6c-13.7-5.7-26.3-14.1-36.8-24.6c-10.5-10.5-18.9-23.1-24.6-36.8C397.2,332.6,394.2,317.8,394.2,302.9L394.2,302.9z M40.2,528.7v1V528.7z M507.7,10C333,10,191.5,151.6,191.5,326.2c0,174.6,316.2,527,316.2,527s316.2-352.3,316.2-527C823.8,151.6,682.3,10,507.7,10L507.7,10L507.7,10z M507.7,457.9c-87.3,0-158.1-70.8-158.1-158.1c0-87.3,70.8-158.1,158.1-158.1c87.3,0,158.1,70.8,158.1,158.1C665.8,387.1,595,457.9,507.7,457.9L507.7,457.9L507.7,457.9z M579.3,795.2l-19.8,34.3c202.4,3.6,359.6,30.6,359.6,63.4c0,35.2-181.9,63.8-406.3,63.8c-311,0-406.3-28.6-406.3-63.8c0-32.3,152.4-58.9,350.2-63.2l-19.9-34.5C221.3,802.6,56.4,843.1,56.4,892c0,54.1,105.9,98,451.7,98c249.5,0,451.7-43.9,451.7-98C959.8,843.1,795,802.6,579.3,795.2L579.3,795.2z"/>
</svg>
