<?xml version="1.0" standalone="no"?><!DOCTYPE svg PUBLIC "-//W3C//DTD SVG 1.1//EN" "http://www.w3.org/Graphics/SVG/1.1/DTD/svg11.dtd"><svg t="1571381058559" class="icon" viewBox="0 0 1024 1024" version="1.1" xmlns="http://www.w3.org/2000/svg" p-id="6393" xmlns:xlink="http://www.w3.org/1999/xlink" width="200" height="200"><defs><style type="text/css"></style></defs><path d="M508.416 281.088c-94.208 0-171.52 76.8-171.52 171.52 0 94.208 76.8 171.52 171.52 171.52s171.52-76.8 171.52-171.52-74.752-171.52-171.52-171.52z" fill="#333333" p-id="6394"></path><path d="M645.12 452.608c0 74.752-59.904 134.144-134.144 134.144-74.752 0-134.144-59.904-134.144-134.144 0-74.752 59.904-134.144 134.144-134.144 72.192 0 134.144 59.392 134.144 134.144z" fill="#F8653D" p-id="6395"></path><path d="M508.416 223.744c17.408 0 32.256-14.848 32.256-32.256s-14.848-32.256-32.256-32.256S476.16 174.08 476.16 191.488s14.848 32.256 32.256 32.256z" fill="#333333" p-id="6396"></path><path d="M784.384 949.76c0-25.088-25.088-19.968-25.088-19.968h-79.36l-49.664-148.992c22.528-7.68 44.544-17.408 67.072-29.696 57.344-32.256 101.888-79.36 136.704-134.144 34.816-57.344 52.224-124.416 52.224-191.488 0-49.664-9.728-99.328-29.696-146.432-19.968-44.544-47.104-84.48-79.36-119.296-34.816-34.816-74.752-61.952-119.296-79.36-47.104-19.968-92.16-29.696-144.384-29.696s-101.888 9.728-148.992 29.696c-44.544 19.968-84.48 47.104-119.296 79.36-34.816 34.816-61.952 74.752-79.36 119.296-19.968 47.104-29.696 94.208-29.696 146.432 0 52.224 9.728 99.328 29.696 146.432 19.968 44.544 44.544 84.48 79.36 119.296s74.752 61.952 119.296 79.36c9.728 5.12 19.968 7.68 29.696 12.288l-49.664 146.432h-81.92s-25.088-5.12-25.088 19.968 25.088 25.088 25.088 25.088h497.152c-0.512 0 24.576 0 24.576-24.576z m-343.04-159.232c44.544 7.68 94.208 7.68 139.264-2.56l47.104 141.824H391.68l49.664-139.264zM839.168 424.96c0 59.904-14.848 116.736-44.544 166.4-29.696 49.664-69.632 89.6-119.296 119.296-49.664 29.696-107.008 44.544-163.84 44.544-87.04 0-171.52-34.816-233.472-96.768C215.04 596.48 177.664 514.56 177.664 424.96c0-87.04 34.816-171.52 96.768-233.472 61.952-61.952 144.384-96.768 233.472-96.768 87.04 0 171.52 34.816 233.472 96.768C804.352 253.44 839.168 337.92 839.168 424.96z" fill="#333333" p-id="6397"></path></svg>