<?xml version="1.0" standalone="no"?><!DOCTYPE svg PUBLIC "-//W3C//DTD SVG 1.1//EN" "http://www.w3.org/Graphics/SVG/1.1/DTD/svg11.dtd"><svg t="1561964708186" class="icon" viewBox="0 0 1024 1024" version="1.1" xmlns="http://www.w3.org/2000/svg" p-id="8965" xmlns:xlink="http://www.w3.org/1999/xlink" width="200" height="200"><defs><style type="text/css"></style></defs><path d="M875.627096 216.369549 148.372904 216.369549C108.06436 216.369549 75.266536 249.167373 75.266536 289.481999l0 445.801062c0 40.447203 32.797824 73.111233 73.106368 73.111233l727.254192 0c40.447203 0 73.106368-32.66403 73.106368-73.111233L948.733464 289.481999C948.73468 249.167373 916.074299 216.369549 875.627096 216.369549L875.627096 216.369549 875.627096 216.369549 875.627096 216.369549zM858.171818 268.728086 568.16194 525.80148c-25.333324 22.586894-44.066945 33.762359-56.164373 33.762359-12.091347 0-30.824968-11.179114-56.110855-33.762359L165.829398 268.728086 858.171818 268.728086 858.171818 268.728086 858.171818 268.728086 858.171818 268.728086zM129.686719 719.019767 129.686719 316.231109l226.428441 198.623573L129.686719 719.019767 129.686719 719.019767 129.686719 719.019767 129.686719 719.019767zM167.706166 755.988322l227.392975-201.783549 37.239791 32.660381c21.623576 18.919716 48.330114 28.630743 79.658635 28.630743 31.520697 0 58.041141-9.711026 79.797294-28.630743l37.197221-32.660381 227.345539 201.783549L167.706166 755.988322 167.706166 755.988322 167.706166 755.988322 167.706166 755.988322zM894.361933 719.019767l-226.428441-204.163869 226.428441-198.623573L894.361933 719.019767 894.361933 719.019767 894.361933 719.019767 894.361933 719.019767zM894.361933 719.019767" p-id="8966"></path></svg>