<?xml version="1.0" standalone="no"?><!DOCTYPE svg PUBLIC "-//W3C//DTD SVG 1.1//EN" "http://www.w3.org/Graphics/SVG/1.1/DTD/svg11.dtd"><svg t="1561964660326" class="icon" viewBox="0 0 1024 1024" version="1.1" xmlns="http://www.w3.org/2000/svg" p-id="8733" xmlns:xlink="http://www.w3.org/1999/xlink" width="200" height="200"><defs><style type="text/css"></style></defs><path d="M770.3 894h-520c-49.6 0-90-40.4-90-90V438.2c0-16.6 13.4-30 30-30s30 13.4 30 30V804c0 16.5 13.5 30 30 30h520c16.5 0 30-13.5 30-30V439.7c0-16.6 13.4-30 30-30s30 13.4 30 30V804c0 49.6-40.3 90-90 90z m-580-428.8c-8.1 0-16.1-3.2-22-9.6-11.3-12.2-10.5-31.1 1.7-42.4l278.7-257.7c16.9-16.7 39.3-25.8 63.2-25.8 23.9 0 46.3 9.2 63.2 25.9l275.8 257.7c12.1 11.3 12.7 30.3 1.4 42.4-11.3 12.1-30.3 12.7-42.4 1.4L533.4 198.7l-0.4-0.4c-5.6-5.6-13.2-8.7-21.2-8.7-8.1 0-15.6 3.1-21.2 8.7l-0.8 0.8-279 258c-5.9 5.4-13.2 8.1-20.5 8.1z m355.6 340.7c-7.1 0-14.3-2.5-20-7.6L170.3 480c-12.3-11-13.4-30-2.4-42.4 11-12.3 30-13.4 42.4-2.4L566 753.5c12.3 11 13.4 30 2.4 42.4-6 6.6-14.2 10-22.5 10zM512 755.3c-8.1 0-16.3-3.3-22.2-9.8-11.2-12.2-10.3-31.2 2-42.4L810.1 413c12.2-11.2 31.2-10.3 42.4 2 11.2 12.2 10.3 31.2-2 42.4L532.2 747.5c-5.7 5.2-13 7.8-20.2 7.8zM316 574.6c-13.8 0-25-11.2-25-25v-94.3c0-46.9 38.1-85 85-85h270c46.9 0 85 38.1 85 85V541c0 13.8-11.2 25-25 25s-25-11.2-25-25v-85.8c0-19.3-15.7-35-35-35H376c-19.3 0-35 15.7-35 35v94.3c0 13.9-11.2 25.1-25 25.1zM615.4 526h-216c-13.8 0-25-11.2-25-25s11.2-25 25-25h216c13.8 0 25 11.2 25 25s-11.2 25-25 25z m-52.6 86.7h-116c-13.8 0-25-11.2-25-25s11.2-25 25-25h116c13.8 0 25 11.2 25 25s-11.2 25-25 25z" p-id="8734" fill="#9b9b9b"></path></svg>