<?xml version="1.0" standalone="no"?><!DOCTYPE svg PUBLIC "-//W3C//DTD SVG 1.1//EN" "http://www.w3.org/Graphics/SVG/1.1/DTD/svg11.dtd"><svg t="1564107227621" class="icon" viewBox="0 0 1024 1024" version="1.1" xmlns="http://www.w3.org/2000/svg" p-id="846" xmlns:xlink="http://www.w3.org/1999/xlink" width="200" height="200"><defs><style type="text/css"></style></defs><path d="M774.474286 49.702857H249.537143a14.857143 14.857143 0 0 0-14.857143 14.857143v893.714286a14.857143 14.857143 0 0 0 14.857143 14.857143h524.937143a14.857143 14.857143 0 0 0 14.857143-14.857143V64.617143a14.857143 14.857143 0 0 0-14.857143-14.914286zM738.142857 819.428571H283.64V171.131429h454.502857z" fill="#A6BAFB" p-id="847"></path><path d="M608.108571 107.954286a17.142857 17.142857 0 0 1-17.142857 17.142857H426.76a17.142857 17.142857 0 1 1 0-34.285714h164.171429a17.142857 17.142857 0 0 1 17.177142 17.142857z m-239.188571-15.314286a17.142857 17.142857 0 1 0 17.142857 17.142857 17.142857 17.142857 0 0 0-17.131428-17.142857zM508.668571 836.8a52.491429 52.491429 0 1 0 52.48 52.491429 52.491429 52.491429 0 0 0-52.48-52.491429zM839.651429 65.142857v893.714286a65.142857 65.142857 0 0 1-65.142858 65.142857H249.491429a65.142857 65.142857 0 0 1-65.142858-65.142857V65.142857a65.142857 65.142857 0 0 1 65.142858-65.142857h525.028571a65.142857 65.142857 0 0 1 65.131429 65.142857z m-58.365715 0a6.857143 6.857143 0 0 0-6.754285-6.754286H249.491429A6.857143 6.857143 0 0 0 242.737143 65.142857v893.714286a6.857143 6.857143 0 0 0 6.754286 6.765714h525.028571a6.857143 6.857143 0 0 0 6.754286-6.765714z" fill="" p-id="848"></path></svg>