<?xml version="1.0" standalone="no"?><!DOCTYPE svg PUBLIC "-//W3C//DTD SVG 1.1//EN" "http://www.w3.org/Graphics/SVG/1.1/DTD/svg11.dtd"><svg t="1559729767976" class="icon" style="" viewBox="0 0 1024 1024" version="1.1" xmlns="http://www.w3.org/2000/svg" p-id="4180" xmlns:xlink="http://www.w3.org/1999/xlink" width="48" height="48"><defs><style type="text/css"></style></defs><path d="M232.727425 512c0-64.279425-52.085124-116.362876-116.362876-116.362876S0 447.720575 0 512s52.085124 116.362876 116.362876 116.362876S232.727425 576.279425 232.727425 512zM46.54515 512c0-38.538876 31.27885-69.817725 69.817725-69.817725s69.817725 31.27885 69.817725 69.817725c0 38.538876-31.27885 69.817725-69.817725 69.817725S46.54515 550.538876 46.54515 512z" p-id="4181"></path><path d="M1024 512c0-64.279425-52.085124-116.362876-116.362876-116.362876S791.272575 447.720575 791.272575 512s52.085124 116.362876 116.362876 116.362876S1024 576.279425 1024 512zM837.817725 512c0-38.538876 31.27885-69.817725 69.817725-69.817725 38.538876 0 69.817725 31.27885 69.817725 69.817725 0 38.538876-31.27885 69.817725-69.817725 69.817725C869.096575 581.817725 837.817725 550.538876 837.817725 512z" p-id="4182"></path><path d="M628.362876 512c0-64.279425-52.085124-116.362876-116.362876-116.362876S395.637124 447.720575 395.637124 512s52.085124 116.362876 116.362876 116.362876S628.362876 576.279425 628.362876 512zM442.182275 512c0-38.538876 31.27885-69.817725 69.817725-69.817725s69.817725 31.27885 69.817725 69.817725c0 38.538876-31.27885 69.817725-69.817725 69.817725S442.182275 550.538876 442.182275 512z" p-id="4183"></path></svg>