<?xml version="1.0" standalone="no"?><!DOCTYPE svg PUBLIC "-//W3C//DTD SVG 1.1//EN" "http://www.w3.org/Graphics/SVG/1.1/DTD/svg11.dtd"><svg t="1571294145753" class="icon" viewBox="0 0 1054 1024" version="1.1" xmlns="http://www.w3.org/2000/svg" p-id="9183" xmlns:xlink="http://www.w3.org/1999/xlink" width="205.859375" height="200"><defs><style type="text/css"></style></defs><path d="M120.47 240.941c0-33.13-27.105-60.235-60.235-60.235S0 207.812 0 240.94s27.106 60.235 60.235 60.235 60.236-27.105 60.236-60.235z m849.318 135.53l-237.93 111.435c-9.034 6.023-18.07 3.012-24.093-6.024L542.118 219.86c-6.024-12.047-24.094-12.047-30.118 0L346.353 481.882c-6.024 9.036-15.059 12.047-24.094 6.024L84.329 376.47c-12.047-9.036-30.117 6.023-24.094 21.082l69.27 617.412c3.013 3.011 9.036 9.035 15.06 9.035h771.011c6.024 0 15.06-6.024 15.06-12.047L990.87 394.54c6.023-15.059-9.036-27.106-21.083-18.07zM587.294 954.729h-72.282V569.224c-27.106 27.105-66.26 48.188-108.424 60.235v-72.283c21.083-6.023 42.165-15.058 66.26-27.105 24.093-15.06 45.176-30.118 60.234-48.189h54.212V954.73z m406.588-774.023c-33.13 0-60.235 27.106-60.235 60.235s27.106 60.235 60.235 60.235 60.236-27.105 60.236-60.235-27.106-60.235-60.236-60.235zM527.06 120.47c33.13 0 60.235-27.106 60.235-60.236S560.188 0 527.06 0s-60.235 27.106-60.235 60.235 27.105 60.236 60.235 60.236z" fill="#EEAD0E" p-id="9184"></path></svg>