<?xml version="1.0" standalone="no"?><!DOCTYPE svg PUBLIC "-//W3C//DTD SVG 1.1//EN" "http://www.w3.org/Graphics/SVG/1.1/DTD/svg11.dtd"><svg t="1571294170832" class="icon" viewBox="0 0 1054 1024" version="1.1" xmlns="http://www.w3.org/2000/svg" p-id="9310" xmlns:xlink="http://www.w3.org/1999/xlink" width="205.859375" height="200"><defs><style type="text/css"></style></defs><path d="M527.058824 120.470588c33.129412 0 60.235294-27.105882 60.235294-60.235294s-27.105882-60.235294-60.235294-60.235294-60.235294 27.105882-60.235295 60.235294 27.105882 60.235294 60.235295 60.235294zM120.470588 240.941176c0-33.129412-27.105882-60.235294-60.235294-60.235294s-60.235294 27.105882-60.235294 60.235294 27.105882 60.235294 60.235294 60.235295 60.235294-27.105882 60.235294-60.235295zM969.788235 376.470588l-237.929411 111.435294c-9.035294 6.023529-18.070588 3.011765-24.094118-6.023529L542.117647 219.858824c-6.023529-12.047059-24.094118-12.047059-30.117647 0L346.352941 481.882353c-6.023529 9.035294-15.058824 12.047059-24.094117 6.023529l-237.929412-111.435294c-12.047059-9.035294-30.117647 6.023529-24.094118 21.082353l69.270588 617.411765c3.011765 3.011765 9.035294 9.035294 15.058824 9.035294h771.011765c6.023529 0 15.058824-6.023529 15.058823-12.047059l60.235294-617.411765c6.023529-15.058824-9.035294-27.105882-21.082353-18.070588z m-271.058823 587.294118H361.411765v-6.02353c0-48.188235 15.058824-90.352941 48.188235-126.494117 18.070588-21.082353 51.2-48.188235 108.423529-87.341177 33.129412-24.094118 54.211765-39.152941 66.258824-54.211764 21.082353-24.094118 30.117647-48.188235 30.117647-75.294118 0-24.094118-6.023529-45.176471-21.082353-57.223529-15.058824-12.047059-33.129412-18.070588-60.235294-18.070589-30.117647 0-48.188235 9.035294-63.247059 30.117647-15.058824 18.070588-24.094118 45.176471-24.094118 84.329412v3.011765h-81.317647v-6.02353c0-54.211765 15.058824-96.376471 48.188236-129.505882 30.117647-36.141176 72.282353-51.2 126.494117-51.2 48.188235 0 84.329412 15.058824 114.447059 39.152941 30.117647 27.105882 45.176471 63.247059 45.176471 105.411765s-15.058824 81.317647-48.188236 114.447059c-18.070588 18.070588-51.2 45.176471-99.388235 78.305882-45.176471 30.117647-75.294118 57.223529-87.341176 81.317647h234.917647V963.764706zM993.882353 180.705882c-33.129412 0-60.235294 27.105882-60.235294 60.235294s27.105882 60.235294 60.235294 60.235295 60.235294-27.105882 60.235294-60.235295-27.105882-60.235294-60.235294-60.235294z" fill="#FFD301" p-id="9311"></path></svg>