<?xml version="1.0" standalone="no"?><!DOCTYPE svg PUBLIC "-//W3C//DTD SVG 1.1//EN" "http://www.w3.org/Graphics/SVG/1.1/DTD/svg11.dtd"><svg t="1571294179864" class="icon" viewBox="0 0 1054 1024" version="1.1" xmlns="http://www.w3.org/2000/svg" p-id="9437" xmlns:xlink="http://www.w3.org/1999/xlink" width="205.859375" height="200"><defs><style type="text/css"></style></defs><path d="M120.47 240.941c0-33.13-27.105-60.235-60.235-60.235S0 207.812 0 240.94s27.106 60.235 60.235 60.235 60.236-27.105 60.236-60.235z m406.589-120.47c33.13 0 60.235-27.106 60.235-60.236S560.188 0 527.06 0s-60.235 27.106-60.235 60.235 27.105 60.236 60.235 60.236z m442.73 256l-237.93 111.435c-9.035 6.023-18.07 3.012-24.094-6.024L542.118 219.86c-6.024-12.047-24.094-12.047-30.118 0L346.353 481.882c-6.024 9.036-15.059 12.047-24.094 6.024L84.329 376.47c-12.047-9.036-30.117 6.023-24.094 21.082l69.27 617.412c3.013 3.011 9.036 9.035 15.06 9.035h771.011c6.024 0 15.06-6.024 15.06-12.047L990.87 394.54c6.023-15.059-9.036-27.106-21.083-18.07zM656.564 930.635c-33.13 27.106-72.283 42.165-123.483 42.165-48.188 0-87.34-12.047-117.458-36.141-33.13-27.106-51.2-69.27-54.212-120.47h72.282c0 33.129 12.047 57.223 30.118 72.282s39.153 24.094 66.259 24.094c30.117 0 54.211-9.036 72.282-27.106 15.059-15.059 24.094-36.141 24.094-60.235 0-27.106-9.035-48.189-27.106-60.236-15.059-12.047-39.153-21.082-72.282-21.082h-33.13v-51.2h33.13c30.117 0 51.2-6.024 66.259-18.07 15.058-12.048 21.082-30.118 21.082-54.212s-6.024-42.165-21.082-54.212c-15.06-12.047-36.142-18.07-63.247-18.07-27.106 0-51.2 6.023-66.26 21.082-12.046 12.047-21.082 33.129-24.093 63.247h-72.283c3.012-48.189 21.083-84.33 51.2-111.436 30.118-27.106 66.26-39.153 114.447-39.153 48.189 0 84.33 12.047 114.447 33.13 27.106 24.094 42.165 54.212 42.165 96.376 0 51.2-27.106 87.341-78.306 105.412 27.106 9.035 48.188 21.082 63.247 39.153 15.06 18.07 24.094 42.165 24.094 69.27 3.012 42.165-12.047 78.306-42.164 105.412z m337.317-749.93c-33.13 0-60.235 27.107-60.235 60.236s27.106 60.235 60.235 60.235 60.236-27.105 60.236-60.235-27.106-60.235-60.236-60.235z" fill="#BFAD6F" p-id="9438"></path></svg>