<?xml version="1.0" standalone="no"?><!DOCTYPE svg PUBLIC "-//W3C//DTD SVG 1.1//EN" "http://www.w3.org/Graphics/SVG/1.1/DTD/svg11.dtd"><svg t="1561446632401" class="icon" viewBox="0 0 1024 1024" version="1.1" xmlns="http://www.w3.org/2000/svg" p-id="2155" xmlns:xlink="http://www.w3.org/1999/xlink" width="200" height="200"><defs><style type="text/css"></style></defs><path d="M869.43 583.06h-94.52v-53.62h0.04v-29.93H535.79v-58.58h104.37c20.18 0 30.28-10.09 30.28-30.28V168.32c0-20.19-10.1-30.28-30.28-30.28H397.81c-20.19 0-30.28 10.09-30.28 30.28v242.34c0 20.18 10.09 30.28 30.28 30.28h103.82v58.58H263.01v83.55H154.57c-20.19 0-30.28 10.09-30.28 30.28v242.34c0 20.18 10.09 30.28 30.28 30.28h242.34c20.18 0 30.28-10.1 30.28-30.28V613.34c0-20.19-10.09-30.28-30.28-30.28H296.7v-53.62h444.52v53.62H627.08c-20.18 0-30.28 10.09-30.28 30.28v242.34c0 20.18 10.1 30.28 30.28 30.28h242.34c20.19 0 30.28-10.1 30.28-30.28V613.34c0.01-20.19-10.09-30.28-30.27-30.28z" p-id="2156"></path></svg>