<?xml version="1.0" encoding="utf-8"?>
<!-- Svg Vector Icons : http://www.sfont.cn -->
<!DOCTYPE svg PUBLIC "-//W3C//DTD SVG 1.1//EN" "http://www.w3.org/Graphics/SVG/1.1/DTD/svg11.dtd">
<svg version="1.1" xmlns="http://www.w3.org/2000/svg" xmlns:xlink="http://www.w3.org/1999/xlink" x="0px" y="0px" viewBox="0 0 1000 1000" enable-background="new 0 0 1200 1200" xml:space="preserve">
<path d="M299.9,247c0-3.4-10.7-31.7-10.6-35.1c0.1-3.9,11.1-7.8,11.4-11.6c7.3-96.6,59.5-163.4,130.7-188.6v81.6c0,46.9,30.7,84.9,68.6,84.9c37.9,0,68.6-38,68.6-84.9V14c90,36.5,123.6,138.8,133.2,189.5c0.7,3.7,8.4,2.7,8.8,5.8c1.4,10.8-16.2,37.7-16.2,37.7c-40.9,20.2-77,44.2-119.2,48.9l-155.6-0.7C353,283.8,299.9,247,299.9,247z M578.3,323.8l-1.7,0.2l-161.9-1.2c-47.2-8.1-87.8-27.5-110.9-40.5c13.1,96.8,95.8,171.5,196.2,171.5c102.1,0,186.1-77.2,196.9-176.4c-5.3,2.7-10.6,5.4-15.7,8.1C649.4,302.3,616.6,319.6,578.3,323.8z M837.8,721v205.7h-1.4l-13.2,6.7c-6.7,3.4-114.8,56.6-301.2,56.6c-95.5,0-211.5-13.9-345-55.6l-14.2-4.5l-0.5-3.2V721c0-139.9,113.8-253.7,253.7-253.7h168.1C724,467.3,837.8,581.2,837.8,721z M547.1,885.3l-21.8-309.5c-0.1-1.6-1.5-2.9-3.1-2.9h-42c-1.6,0-3,1.2-3.1,2.9l-20.2,309.5c0,0.7,0.1,1.3,0.5,1.9l40.4,63.8c0.6,0.9,1.5,1.4,2.6,1.4c0,0,0.1,0,0.1,0c1,0,2-0.5,2.6-1.4l43.6-63.7C546.9,886.7,547.2,886,547.1,885.3z M557.8,522c0-7.2-5.8-13-12.9-13H458c-7.2,0-13,5.8-13,13l36.2,74.7h41.6L557.8,522z M500,170.2c-34.7,0-62.9-34.3-62.9-76.5V10h125.8v83.7C562.9,135.9,534.7,170.2,500,170.2z M448.6,21.5v72.2c0,35.8,23,65,51.4,65c28.3,0,51.4-29.1,51.4-65V21.5H448.6z"/>
</svg>
