<?xml version="1.0" standalone="no"?><!DOCTYPE svg PUBLIC "-//W3C//DTD SVG 1.1//EN" "http://www.w3.org/Graphics/SVG/1.1/DTD/svg11.dtd"><svg t="1564628992307" class="icon" viewBox="0 0 1024 1024" version="1.1" xmlns="http://www.w3.org/2000/svg" p-id="3333" xmlns:xlink="http://www.w3.org/1999/xlink" width="200" height="200"><defs><style type="text/css"></style></defs><path d="M512 22C241.38 22 22 241.38 22 512s219.38 490 490 490 490-219.38 490-490S782.62 22 512 22z m-55.4 339.54c-4.73-0.07-9.39-1-13.72-2.93-8.59-3.67-15.39-10.53-18.86-19.19-3.53-8.66-3.4-18.32 0.27-26.92l5.59-12.99c-93.01 34.71-152.97 125.59-148.1 224.79 4.86 99.2 73.29 183.88 169.22 209.4 16.99 4.6 28.05 21.12 25.72 38.58-2.33 17.45-17.19 30.58-34.84 30.58-3.07-0.07-6.2-0.47-9.2-1.2-123.52-32.71-212.46-140.57-221.19-268.09-8.73-127.52 64.82-246.44 182.75-295.68-17.05-8.13-24.65-28.32-17.12-45.7 7.53-17.39 27.38-25.72 45.04-18.85l84.28 36.44c17.72 7.73 25.85 28.25 18.32 46.17l-35.78 84.88c-5.73 12.72-18.46 20.85-32.38 20.71z m356.5 149.04c-3.13 118.73-76.28 224.32-186.28 268.89l10.66 6.66c12.12 5.8 19.85 17.99 19.99 31.38a35.208 35.208 0 0 1-19.32 31.78c-11.99 6.06-26.31 4.73-37.04-3.33l-78.02-48.5c-8-4.86-13.72-12.73-15.92-21.85-2.2-9.13-0.6-18.72 4.4-26.65l47.9-78.08c9.33-16.92 30.64-23.19 47.64-13.86 16.92 9.33 23.19 30.65 13.86 47.63 82.35-43.1 130.31-131.71 121.39-224.18-8.93-92.48-73.02-170.29-162.03-196.88-12.52-3.2-22.25-12.99-25.32-25.51-3.06-12.53 0.93-25.78 10.39-34.45 9.46-8.66 22.99-11.53 35.18-7.33C729.69 255.28 816.7 375.8 813.1 510.58z" p-id="3334"></path></svg>