<?xml version="1.0" encoding="utf-8"?>
<!-- Svg Vector Icons : http://www.sfont.cn -->
<!DOCTYPE svg PUBLIC "-//W3C//DTD SVG 1.1//EN" "http://www.w3.org/Graphics/SVG/1.1/DTD/svg11.dtd">
<svg version="1.1" xmlns="http://www.w3.org/2000/svg" xmlns:xlink="http://www.w3.org/1999/xlink" x="0px" y="0px" viewBox="0 0 1000 1000" enable-background="new 0 0 1000 1000" xml:space="preserve">
<path d="M581.3,553.8v-2.2l-12.9-172.3c-0.4-4.7-2.3-8.7-5.9-12.1c-3.6-3.4-7.7-5.1-12.4-5.1H449.9c-4.7,0-8.8,1.7-12.4,5.1c-3.6,3.4-5.6,7.4-5.9,12.1l-12.9,172.3v2.2c-0.4,4.3,1.1,7.9,4.3,10.8c3.2,2.9,7,4.3,11.3,4.3h131.4c4.3,0,8.1-1.4,11.3-4.3C580.2,561.7,581.7,558.2,581.3,553.8z M990,805.3c0,26.2-8.3,39.3-24.8,39.3H586.2c4.7,0,8.6-1.7,11.8-5.1c3.2-3.4,4.7-7.4,4.3-12.1l-10.8-137.8c-0.4-4.7-2.3-8.7-5.9-12.1c-3.6-3.4-7.7-5.1-12.4-5.1H426.8c-4.7,0-8.8,1.7-12.4,5.1c-3.6,3.4-5.6,7.4-5.9,12.1l-10.8,137.8c-0.4,4.7,1.1,8.7,4.3,12.1c3.2,3.4,7.2,5.1,11.8,5.1H34.8c-16.5,0-24.8-13.1-24.8-39.3c0-19.4,4.7-40.2,14-62.5l224.5-562.2c2.9-6.8,7.5-12.7,14-17.8s13.3-7.5,20.5-7.5h182.5c-4.7,0-8.8,1.7-12.4,5.1s-5.6,7.4-5.9,12.1L439.2,276c-0.4,5,1.1,9.2,4.3,12.4s7.2,4.8,11.8,4.8h89.4c4.7,0,8.6-1.6,11.8-4.8c3.2-3.2,4.7-7.4,4.3-12.4l-8.1-103.4c-0.4-4.7-2.3-8.7-5.9-12.1s-7.7-5.1-12.4-5.1H717c7.2,0,14,2.5,20.5,7.5s11.1,10.9,14,17.8L976,742.8C985.3,765.1,990,785.9,990,805.3z"/>
</svg>
