<?xml version="1.0" standalone="no"?><!DOCTYPE svg PUBLIC "-//W3C//DTD SVG 1.1//EN" "http://www.w3.org/Graphics/SVG/1.1/DTD/svg11.dtd"><svg t="1561372724414" class="icon" viewBox="0 0 1024 1024" version="1.1" xmlns="http://www.w3.org/2000/svg" p-id="4830" xmlns:xlink="http://www.w3.org/1999/xlink" width="200" height="200"><defs><style type="text/css"></style></defs><path d="M928 336a271.68 271.68 0 0 0-416-230.4V96h-34.56a414.08 414.08 0 0 0-306.88 178.56l-19.84 28.48L399.04 448l5.76-6.4a272.64 272.64 0 0 0 197.76 162.56 128 128 0 0 1-64 34.56l-25.92 5.12-25.6-5.12a124.8 124.8 0 0 1-15.36-4.16A128 128 0 0 1 384 512a134.72 134.72 0 0 1 6.4-40.64l8-24.64L150.4 303.36l-14.72 32a416 416 0 0 0 125.12 508.8l13.76 10.24a421.44 421.44 0 0 0 60.16 34.56A411.2 411.2 0 0 0 477.44 928l34.56 2.88 34.56-2.88a416 416 0 0 0 306.88-176.96 373.44 373.44 0 0 0 34.88-60.48A416 416 0 0 0 928 512a405.12 405.12 0 0 0-11.84-96 261.76 261.76 0 0 0 11.84-80z" fill="#FFFFFF" p-id="4831"></path><path d="M656 336m-240 0a240 240 0 1 0 480 0 240 240 0 1 0-480 0Z" fill="#E9EAEB" p-id="4832"></path><path d="M461.12 663.68a157.12 157.12 0 0 1-55.36-32A160 160 0 0 1 352 512a165.44 165.44 0 0 1 8-50.56l-195.52-112.96a384 384 0 0 0 128 480 398.72 398.72 0 0 0 55.68 32A379.52 379.52 0 0 0 480 896v-227.2a128 128 0 0 1-18.88-5.12zM675.52 164.48A379.52 379.52 0 0 0 544 128v227.2a128 128 0 0 1 18.88 5.12z" fill="#FFFFFF" p-id="4833"></path><path d="M180.16 394.56l143.04 82.56A183.68 183.68 0 0 0 320 512a192 192 0 0 0 64 143.68 192 192 0 0 0 64 37.44v165.12a348.48 348.48 0 0 1-85.76-26.24 363.2 363.2 0 0 1-42.24-24.32L311.04 800A352 352 0 0 1 160 512a345.92 345.92 0 0 1 20.16-117.44m-15.68-46.08a384 384 0 0 0 128 480 398.72 398.72 0 0 0 55.68 32A379.52 379.52 0 0 0 480 896v-227.2a128 128 0 0 1-18.88-5.12 157.12 157.12 0 0 1-55.36-32A160 160 0 0 1 352 512a165.44 165.44 0 0 1 8-50.56l-195.52-112.96z" fill="#2A5082" p-id="4834"></path><path d="M731.2 196.8l-112.96 195.52A160 160 0 0 1 672 512a165.44 165.44 0 0 1-8 50.56A160 160 0 0 1 544 668.48V896a384 384 0 0 0 283.2-163.52 345.6 345.6 0 0 0 32-55.68 384 384 0 0 0-128-480z" fill="#A3D4FF" p-id="4835"></path><path d="M740.48 244.48A352 352 0 0 1 864 512a347.52 347.52 0 0 1-32 150.08 316.8 316.8 0 0 1-32 50.88 349.44 349.44 0 0 1-224 145.28v-165.44a192 192 0 0 0 118.4-120.64 192 192 0 0 0-36.48-184.64l82.56-143.04m-9.28-47.68l-112.96 195.52A160 160 0 0 1 672 512a165.44 165.44 0 0 1-8 50.56A160 160 0 0 1 544 668.48V896a384 384 0 0 0 283.2-163.52 345.6 345.6 0 0 0 32-55.68 384 384 0 0 0-128-480zM576 165.76a317.76 317.76 0 0 1 53.76 14.4L576 273.28V165.76M544 128v227.2a128 128 0 0 1 18.88 5.12l112.64-195.84A379.52 379.52 0 0 0 544 128z" fill="#2A5082" p-id="4836"></path><path d="M196.8 292.8l195.52 112.96A157.76 157.76 0 0 1 480 355.52V128a384 384 0 0 0-283.2 164.8z" fill="#FFFFFF" p-id="4837"></path><path d="M448 165.76v165.44a189.12 189.12 0 0 0-60.8 34.88L244.48 283.2A349.76 349.76 0 0 1 448 165.76M480 128a384 384 0 0 0-283.2 164.8l195.52 112.96A157.76 157.76 0 0 1 480 355.52V128z" fill="#2A5082" p-id="4838"></path></svg>