<?xml version="1.0" standalone="no"?><!DOCTYPE svg PUBLIC "-//W3C//DTD SVG 1.1//EN" "http://www.w3.org/Graphics/SVG/1.1/DTD/svg11.dtd"><svg t="1561372688476" class="icon" viewBox="0 0 1024 1024" version="1.1" xmlns="http://www.w3.org/2000/svg" p-id="4574" xmlns:xlink="http://www.w3.org/1999/xlink" width="200" height="200"><defs><style type="text/css"></style></defs><path d="M930.24 316.48A155.2 155.2 0 0 0 928 297.6v-3.52a189.44 189.44 0 0 0-7.36-23.68A247.68 247.68 0 0 0 896 224v-2.24l-7.68-7.68a368.96 368.96 0 0 0-37.76-43.52c-6.4-6.4-13.12-12.16-19.52-17.92l-7.36-6.08-14.4-10.88-9.28-5.12c-6.08-4.16-11.84-7.68-17.28-10.88l-5.12-2.88q-8-4.16-16.32-7.68l-6.72-2.88-13.12-4.8h-4.8L723.52 96h-3.84l-12.16-1.92h-38.08l-8.32 1.92-9.28 3.2-128 150.72A304 304 0 0 0 96 528a303.36 303.36 0 0 0 20.48 109.44l-16.64 14.4-3.84 8.64A113.28 113.28 0 0 0 93.44 704a242.88 242.88 0 0 0 80.64 148.8c6.72 6.72 13.44 12.8 20.16 18.56l7.36 6.08 14.4 11.2 7.04 4.8c6.08 4.16 12.16 8 17.92 11.2l9.28 4.8 11.2 5.44 9.6 3.84 14.72 5.12 7.68 2.24 10.88 2.24a55.68 55.68 0 0 0 10.88 0H350.72l9.6-1.92 11.84-3.84 53.44-64a87.68 87.68 0 0 0 22.4 5.44h342.4l137.6 91.84V576a96 96 0 0 0-96-96h-35.2l128-108.16 3.2-13.44a38.08 38.08 0 0 0 0-8.64v-15.68c0-8 2.88-10.24 2.24-17.6z m-201.6-185.92z m-487.68 736z m82.56 32z m11.52 0z" fill="#FFFFFF" p-id="4575"></path><path d="M400 528m-272 0a272 272 0 1 0 544 0 272 272 0 1 0-544 0Z" fill="#E9EAEB" p-id="4576"></path><path d="M828.8 195.2c90.56 90.56 67.84 160 67.84 160l-294.08 248.96L353.6 896s-67.84 22.72-160-67.84S128 672 128 672l294.08-248.96L672 128s66.24-23.36 156.8 67.2z" fill="#A3D4FF" p-id="4577"></path><path d="M864 235.2c50.24 69.44 33.92 118.4 33.92 118.4l-294.08 248.96L353.6 896s-47.68 16-116.48-32l283.2-344z" fill="#FFFFFF" p-id="4578"></path><path d="M640 512a64 64 0 0 1 24-49.92 173.44 173.44 0 0 0-9.28-22.4 64 64 0 0 1-70.4-70.4 173.44 173.44 0 0 0-22.4-9.28 64 64 0 0 1-99.84 0 173.44 173.44 0 0 0-22.4 9.28 64 64 0 0 1-70.4 70.4 173.44 173.44 0 0 0-9.28 22.4 64 64 0 0 1 0 99.84 173.44 173.44 0 0 0 9.28 22.4 64 64 0 0 1 70.4 70.4l8.32 3.52V800l64-32 64 32v-141.76l8.32-3.52a64 64 0 0 1 70.4-70.4 173.44 173.44 0 0 0 9.28-22.4A64 64 0 0 1 640 512z" fill="#FFFFFF" p-id="4579"></path><path d="M828.8 195.2c-60.8-60.48-110.72-70.4-137.6-70.4a72 72 0 0 0-19.2 3.2l-202.24 239.04a57.6 57.6 0 0 1-6.08-6.4 173.44 173.44 0 0 0-22.4 9.28 64 64 0 0 1-9.92 42.24 74.24 74.24 0 0 1-18.24 18.24 64 64 0 0 1-34.88 10.24h-7.36a173.44 173.44 0 0 0-9.28 22.4 57.6 57.6 0 0 1 6.4 6.08L352 480l-224 192s-23.36 66.24 67.2 156.8c60.48 60.48 110.72 70.4 137.6 70.4a67.52 67.52 0 0 0 19.2-3.2v-32l-15.36 3.2h-3.84a128 128 0 0 1-64-21.12l83.2-98.24v-49.28l-110.4 128c-7.68-6.4-15.36-13.12-23.68-21.44C160 747.84 155.84 704 156.8 687.36l195.2-165.12 30.08-25.6A61.12 61.12 0 0 1 384 512a64 64 0 0 1-24 49.92 173.44 173.44 0 0 0 9.28 22.4h7.36a64 64 0 0 1 64 70.72l8.32 3.52V800l64-32 64 32v-141.76l8.32-3.52a64 64 0 0 1 64-70.72h7.36a173.44 173.44 0 0 0 9.28-22.4 64 64 0 0 1 0-99.84 173.44 173.44 0 0 0-9.28-22.4h-9.28l200.64-171.84a123.52 123.52 0 0 1 21.12 68.8L697.92 480h49.28L896 353.6s23.36-67.84-67.2-158.4zM544 748.16l-17.6-8.64-14.4-7.36-14.4 7.36-17.6 8.64v-87.36l7.04-8.64a32 32 0 0 1 49.92 0l7.04 8.64z m74.88-280.32a96 96 0 0 0 0 88.32 96 96 0 0 0-64 64 90.88 90.88 0 0 0-29.12-8.96 59.84 59.84 0 0 0-30.08 0 90.88 90.88 0 0 0-29.12 8.96 96 96 0 0 0-64-64A96 96 0 0 0 416 512a92.16 92.16 0 0 0-7.68-37.44 64 64 0 0 0-3.2-6.72 90.24 90.24 0 0 0 29.44-15.68 105.92 105.92 0 0 0 9.6-8l8.32-9.6a96 96 0 0 0 15.36-29.44l6.72 3.2A92.16 92.16 0 0 0 512 416a96 96 0 0 0 44.16-10.88 98.88 98.88 0 0 0 23.68 39.04 38.08 38.08 0 0 0 5.76 4.8 84.8 84.8 0 0 0 29.12 17.28z m-8.64-40a67.84 67.84 0 0 1-7.68-6.4 64 64 0 0 1-18.24-52.16 173.44 173.44 0 0 0-22.4-9.28A64 64 0 0 1 512 384a61.12 61.12 0 0 1-15.36-1.92l192-224h3.84c20.16 0 61.76 8 114.88 61.12a235.2 235.2 0 0 1 21.44 23.68z" fill="#2A5082" p-id="4580"></path><path d="M512 480a32 32 0 1 1-32 32 32 32 0 0 1 32-32m0-32a64 64 0 1 0 64 64 64 64 0 0 0-64-64z" fill="#2A5082" p-id="4581"></path><path d="M896 576a64 64 0 0 0-64-64H448a64 64 0 0 0-64 64v192a64 64 0 0 0 64 64h352l96 64v-128z" fill="#FFFFFF" p-id="4582"></path><path d="M832 544a32 32 0 0 1 32 32v260.16l-46.4-32-8-4.16H448a32 32 0 0 1-32-32v-192a32 32 0 0 1 32-32h384m0-32H448a64 64 0 0 0-64 64v192a64 64 0 0 0 64 64h352l96 64V576a64 64 0 0 0-64-64z" fill="#2A5082" p-id="4583"></path><path d="M704 704h96v32h-96zM480 704h192v32h-192zM480 608h96v32h-96z" fill="#2A5082" p-id="4584"></path></svg>