<?xml version="1.0" standalone="no"?><!DOCTYPE svg PUBLIC "-//W3C//DTD SVG 1.1//EN" "http://www.w3.org/Graphics/SVG/1.1/DTD/svg11.dtd"><svg t="1564106780795" class="icon" viewBox="0 0 1183 1024" version="1.1" xmlns="http://www.w3.org/2000/svg" p-id="2527" xmlns:xlink="http://www.w3.org/1999/xlink" width="231.0546875" height="200"><defs><style type="text/css"></style></defs><path d="M148.595125 759.938409c-7.371411 0-13.60438-6.731038-13.60438-14.700131v-595.547403c0-7.969093 6.232969-14.700131 13.60438-14.70013h886.789294c7.371411 0 13.60438 6.731038 13.60438 14.70013v595.547403c0 7.969093-6.232969 14.700131-13.60438 14.700131z" fill="#A6BAFB" p-id="2528"></path><path d="M1035.384419 0H148.595125C66.641541 0 0 67.15384 0 149.690875v595.547403c0 82.537035 66.641541 149.690875 148.595125 149.690875h886.789294c81.953584 0 148.595125-67.15384 148.595125-149.690875v-595.547403C1183.979544 67.15384 1117.338003 0 1035.384419 0z m81.113983 745.224047c0 45.324217-36.387448 82.195503-81.113983 82.195503H148.595125c-44.712304 0-81.113983-36.871286-81.113983-82.195503V149.690875c0-45.324217 36.387448-82.195503 81.113983-82.195503h886.789294c44.712304 0 81.113983 36.871286 81.113983 82.195503zM966.494455 993.318992v18.400066a12.309403 12.309403 0 0 1-12.266711 12.266711H242.502349a12.309403 12.309403 0 0 1-12.266712-12.266711v-18.400066a67.6946 67.6946 0 0 1 67.495373-67.495373h601.268073a67.6946 67.6946 0 0 1 67.495372 67.495373zM562.617972 368.855166a38.422413 38.422413 0 0 1-36.672059 38.422413h-74.425637v187.586759a38.479335 38.479335 0 1 1-76.958671 0V407.377192h-74.51102a38.479335 38.479335 0 1 1 0-76.95867h225.895328a38.422413 38.422413 0 0 1 36.672059 38.436644z m328.070485 17.546235L776.986576 612.453264a37.426276 37.426276 0 0 1-67.054227 0l-113.801495-226.051863a38.906251 38.906251 0 0 1 16.32241-51.756414A37.298202 37.298202 0 0 1 663.142389 351.30893l80.174768 159.381862 80.345535-159.381862a37.369354 37.369354 0 0 1 50.746046-16.649712h-0.085383a38.89202 38.89202 0 0 1 16.365102 51.742183z" fill="" p-id="2529"></path></svg>