<?xml version="1.0" standalone="no"?><!DOCTYPE svg PUBLIC "-//W3C//DTD SVG 1.1//EN" "http://www.w3.org/Graphics/SVG/1.1/DTD/svg11.dtd"><svg t="1561372697152" class="icon" viewBox="0 0 1024 1024" version="1.1" xmlns="http://www.w3.org/2000/svg" p-id="4701" xmlns:xlink="http://www.w3.org/1999/xlink" width="200" height="200"><defs><style type="text/css"></style></defs><path d="M928 400a237.76 237.76 0 0 0-64-162.88V96h-256a128 128 0 0 0-128 128 128 128 0 0 0-128-128H96v256a128 128 0 0 0 128 128 128 128 0 0 0-128 128v256h256a134.72 134.72 0 0 0 35.84-5.12A96 96 0 0 0 480 928h352a96 96 0 0 0 96-96v-288a96 96 0 0 0-17.28-54.72A235.84 235.84 0 0 0 928 400z" fill="#FFFFFF" p-id="4702"></path><path d="M688 400m-208 0a208 208 0 1 0 416 0 208 208 0 1 0-416 0Z" fill="#E9EAEB" p-id="4703"></path><path d="M448 512H224a96 96 0 0 0-96 96v224h224a96 96 0 0 0 96-96z" fill="#FFFFFF" p-id="4704"></path><path d="M128 128h224a96 96 0 0 1 96 96v224H224a96 96 0 0 1-96-96V128z" fill="#A3D4FF" p-id="4705"></path><path d="M832 128h-224a96 96 0 0 0-96 96v224h224a96 96 0 0 0 96-96z" fill="#FFFFFF" p-id="4706"></path><path d="M416 544v192a64 64 0 0 1-64 64H160v-192a64 64 0 0 1 64-64h192m32-32H224a96 96 0 0 0-96 96v224h224a96 96 0 0 0 96-96v-224zM352 160a64 64 0 0 1 64 64v192H224a64 64 0 0 1-64-64V160h192m0-32H128v224a96 96 0 0 0 96 96h224V224a96 96 0 0 0-96-96zM800 160v192a64 64 0 0 1-64 64h-192V224a64 64 0 0 1 64-64h192m32-32h-224a96 96 0 0 0-96 96v224h224a96 96 0 0 0 96-96V128z" fill="#2A5082" p-id="4707"></path><path d="M416 480m64 0l352 0q64 0 64 64l0 288q0 64-64 64l-352 0q-64 0-64-64l0-288q0-64 64-64Z" fill="#FFFFFF" p-id="4708"></path><path d="M480 480h352a64 64 0 0 1 64 64v64H416v-64a64 64 0 0 1 64-64z" fill="#A3D4FF" p-id="4709"></path><path d="M832 512a32 32 0 0 1 32 32v288a32 32 0 0 1-32 32H480a32 32 0 0 1-32-32v-288a32 32 0 0 1 32-32h352m0-32H480a64 64 0 0 0-64 64v288a64 64 0 0 0 64 64h352a64 64 0 0 0 64-64v-288a64 64 0 0 0-64-64z" fill="#2A5082" p-id="4710"></path><path d="M832 576H480v32h352v-32zM576 672h-96v32h96v-32zM832 768h-96v32h96v-32zM832 672h-224v32h224v-32z" fill="#2A5082" p-id="4711"></path><path d="M608 672v32h-32v-32h32m32-32h-96v96h96v-96zM704 768h-224v32h224v-32z" fill="#2A5082" p-id="4712"></path><path d="M736 768v32h-32v-32h32m32-32h-96v96h96v-96z" fill="#2A5082" p-id="4713"></path></svg>