<?xml version="1.0" standalone="no"?><!DOCTYPE svg PUBLIC "-//W3C//DTD SVG 1.1//EN" "http://www.w3.org/Graphics/SVG/1.1/DTD/svg11.dtd"><svg t="1561447689977" class="icon" viewBox="0 0 1024 1024" version="1.1" xmlns="http://www.w3.org/2000/svg" p-id="13232" xmlns:xlink="http://www.w3.org/1999/xlink" width="200" height="200"><defs><style type="text/css"></style></defs><path d="M768 69.270588C524.047059-72.282353 210.823529 12.047059 69.270588 256-72.282353 499.952941 12.047059 813.176471 256 954.729412c243.952941 141.552941 557.176471 57.223529 698.729412-186.729412 141.552941-243.952941 57.223529-557.176471-186.729412-698.729412z m-12.047059 587.294118l-45.17647 174.682353-162.635295-102.4 24.094118-84.329412c-57.223529 15.058824-129.505882 6.023529-171.670588-18.070588l-108.42353-63.247059c-66.258824-39.152941-87.341176-129.505882-45.17647-204.8s132.517647-102.4 198.77647-63.247059l108.42353 63.247059c42.164706 24.094118 87.341176 84.329412 102.4 141.552941l60.235294-63.247059 174.682353 93.364706-135.529412 126.494118z m-138.541176-123.482353c-6.023529-51.2-39.152941-102.4-84.329412-126.494118l-87.341177-51.2c-57.223529-33.129412-126.494118-21.082353-153.6 30.117647-30.117647 51.2-3.011765 114.447059 51.2 147.576471l87.341177 51.2c45.176471 24.094118 105.411765 30.117647 153.6 9.035294l45.176471 24.094118-36.141177 96.37647 87.341177 51.2 39.152941-135.529411 96.37647-102.4-87.341176-51.2-66.258824 84.329411-45.17647-27.105882z" fill="#ffffff" p-id="13233"></path></svg>